# xmcd
#
# Track frame offsets: 
#        182
#        14937
#        28902
#        40937
#        51355
#        64515
#        76612
#        92660
#        106715
#        119162
#        133135
#        144625
#        154715
#        163767
#        178192
#        190572
#        200427
#        220302
#        233107
#        242512
#
# Disc length: 3458 seconds
#
# Revision: 1
# Processed by: cddbd v1.5.2PL0 Copyright (c) Steve Scherf et al.
# Submitted via: ExactAudioCopy v0.99pb5
#
DISCID=1b0d8014
DTITLE=Various Artist - Easy Listening Country 3
DYEAR=1900
DGENRE=Country
TTITLE0=Grant and Forsyth - Sometimes When We Touch
TTITLE1=Willie Nelson - If You Can Touch Her At All
TTITLE2=Dickey Lee - Never Ending Song Of Love
TTITLE3=Connie Smith - Young Love
TTITLE4=Dolly Parton - I Will Always Love You
TTITLE5=Bobby Bare - In The Misty Moonlight
TTITLE6=Don Williams - Till The Rivers All Run Dry
TTITLE7=Barbara Mandrell - If Loving You Is Wrong
TTITLE8=Grant and Forsyth - Love Letters
TTITLE9=Dottie West - I Love You Because
TTITLE10=Wynn Stewart - It's Such A Pretty World Today
TTITLE11=Glen Campbell - Sunny Day Girl
TTITLE12=Dottie West - Country Sunshine
TTITLE13=Bobby Goldsboro - Little Green Apples
TTITLE14=Dave and Sugar - The Door Is Always Open
TTITLE15=Lynn Anderson - Snowbird
TTITLE16=Grant and Forsyth - Do That To Me One More Time
TTITLE17=Jerry Reed - East Bound And Down
TTITLE18=Jimmy Dean - Let It Be Me
TTITLE19=Tennessee Ernie Ford - Everything Is Beautiful
EXTD=
EXTT0=
EXTT1=
EXTT2=
EXTT3=
EXTT4=
EXTT5=
EXTT6=
EXTT7=
EXTT8=
EXTT9=
EXTT10=
EXTT11=
EXTT12=
EXTT13=
EXTT14=
EXTT15=
EXTT16=
EXTT17=
EXTT18=
EXTT19=
PLAYORDER=
